<svg xmlns="http://www.w3.org/2000/svg" viewBox="0 0 80 80" fill="none">
  <path d="M24.1 45.5c0 1 .1 1.8.3 2.4.2.6.5 1.3.9 2 .1.2.2.4.2.6 0 .3-.2.5-.5.7l-1.7 1.1c-.2.2-.5.2-.7.2-.3 0-.5-.1-.7-.4-.3-.4-.6-.7-.9-1.1-.3-.4-.5-.8-.8-1.3-2 2.4-4.6 3.5-7.6 3.5-2.2 0-3.9-.6-5.2-1.8-1.3-1.2-2-2.9-2-4.9 0-2.2.8-3.9 2.3-5.3 1.6-1.4 3.7-2 6.3-2 .9 0 1.8.1 2.7.2.9.1 1.9.3 2.9.6v-1.9c0-1.9-.4-3.2-1.2-4-.8-.8-2.2-1.2-4.2-1.2-.9 0-1.8.1-2.8.3-.9.2-1.9.5-2.8.9-.4.2-.7.3-.9.3-.4 0-.6-.3-.6-.8v-1.3c0-.4.1-.8.2-.9.1-.2.4-.4.8-.6 .9-.5 2-.8 3.3-1.1 1.3-.3 2.6-.5 4.1-.5 3.1 0 5.4.7 6.8 2.1 1.4 1.4 2.1 3.6 2.1 6.5v8.5h.1zm-10.5 3.9c.9 0 1.8-.2 2.7-.5 1-.3 1.8-.9 2.5-1.7.4-.5.7-1.1.9-1.7.2-.7.3-1.4.3-2.3v-1.1c-.7-.2-1.5-.4-2.3-.5-.8-.1-1.6-.2-2.4-.2-1.7 0-3 .3-3.8 1.1-.8.7-1.3 1.7-1.3 3 0 1.2.3 2.1 1 2.7.6.8 1.5 1.2 2.4 1.2zm20.8 2.8c-.4 0-.6-.1-.8-.2-.2-.2-.4-.5-.5-.9l-5.8-19.1c-.1-.5-.2-.8-.2-.9 0-.4.2-.6.5-.6h2.7c.4 0 .7.1.8.2.2.2.3.5.4.9l4.1 16.3 3.8-16.3c.1-.5.2-.8.4-.9.2-.2.5-.2.9-.2h2.2c.4 0 .7.1.9.2.2.2.3.5.4.9l3.9 16.5 4.3-16.5c.1-.5.3-.8.4-.9.2-.2.5-.2.8-.2h2.5c.4 0 .6.2.6.6 0 .1 0 .3-.1.4 0 .2-.1.3-.2.6l-5.9 19.1c-.1.5-.3.8-.5.9-.2.2-.5.2-.8.2h-2.4c-.4 0-.7-.1-.9-.2-.2-.2-.3-.5-.4-1l-3.8-15.9-3.8 15.8c-.1.5-.2.8-.4 1-.2.2-.5.2-.9.2h-2.4zm33.3.7c-1.3 0-2.7-.2-3.9-.5-1.3-.3-2.3-.7-3-1.2-.4-.3-.7-.6-.8-.8-.1-.3-.1-.5-.1-.7v-1.4c0-.5.2-.8.6-.8.2 0 .3 0 .5.1.2.1.4.2.6.3.9.4 1.8.7 2.8.9 1 .2 2 .4 3 .4 1.6 0 2.8-.3 3.7-.8.9-.6 1.3-1.4 1.3-2.4 0-.7-.2-1.3-.7-1.8-.5-.5-1.3-.9-2.6-1.3l-3.7-1.1c-1.9-.6-3.2-1.5-4.1-2.6-.9-1.1-1.3-2.4-1.3-3.7 0-1.1.2-2 .7-2.8.5-.8 1.1-1.5 1.9-2.1.8-.6 1.7-1 2.8-1.3 1.1-.3 2.2-.4 3.3-.4.6 0 1.2 0 1.8.1.6.1 1.2.2 1.7.3.5.1 1 .3 1.5.5.5.2.8.4 1.1.6.3.2.6.5.7.7.1.3.2.5.2.9v1.3c0 .5-.2.8-.6.8-.2 0-.5-.1-.9-.3-1.3-.6-2.8-.9-4.5-.9-1.4 0-2.6.2-3.3.7-.8.5-1.2 1.2-1.2 2.2 0 .7.3 1.3.8 1.8.5.5 1.5.9 2.8 1.4l3.6 1.1c1.8.6 3.2 1.4 4 2.5.8 1.1 1.2 2.3 1.2 3.6 0 1.1-.2 2.1-.7 3-.5.9-1.1 1.6-2 2.2-.8.6-1.8 1-3 1.4-1.2.3-2.4.5-3.8.5z" fill="#252F3E"/>
  <path d="M72.4 59.2c-8.9 6.6-21.8 10.1-32.9 10.1-15.6 0-29.6-5.7-40.2-15.3-.8-.7-.1-1.7.9-1.2 11.4 6.7 25.6 10.7 40.2 10.7 9.9 0 20.7-2 30.6-6.2 1.5-.7 2.8 1 1.4 1.9z" fill="#FF9900"/>
  <path d="M76.4 54.7c-1.2-1.5-7.7-.7-10.6-.4-.9.1-1-.7-.2-1.2 5.2-3.7 13.7-2.6 14.7-1.4 1 1.2-.3 10-5.1 14.2-.7.6-1.4.3-1.1-.5 1.1-2.7 3.5-8.7 2.3-10.7z" fill="#FF9900"/>
</svg>